<svg xmlns="http://www.w3.org/2000/svg" width="612" height="408" viewBox="0 0 612 408">
<g>
<path d="M 267.66 332.89 C261.53,335.82 253.89,337.56 252.66,336.33 C252.30,335.97 254.69,333.93 257.96,331.79 C270.80,323.40 276.41,311.68 276.28,293.50 C276.11,269.14 267.94,251.98 251.30,241.05 C241.78,234.80 231.27,231.32 219.15,230.40 L 210.14 229.72 L 208.61 233.40 C207.50,236.04 206.01,237.52 203.29,238.65 C199.44,240.26 190.60,240.93 189.38,239.71 C188.45,238.78 193.50,231.36 196.25,229.62 C197.72,228.68 202.98,227.95 211.50,227.51 C228.32,226.64 235.93,228.12 249.45,234.93 C254.92,237.69 259.52,239.81 259.67,239.66 C260.35,238.98 254.17,228.80 248.65,221.50 C241.90,212.58 232.78,203.39 226.05,198.72 C223.61,197.02 222.14,195.45 222.80,195.23 C225.01,194.50 236.45,202.93 245.75,212.16 C250.83,217.21 255.16,221.15 255.36,220.92 C255.56,220.69 255.32,217.12 254.83,213.00 C252.78,195.94 256.88,174.17 265.38,156.91 C268.61,150.37 277.20,137.00 278.17,137.00 C278.63,137.00 279.00,136.39 279.00,135.65 C279.00,134.92 279.93,133.47 281.06,132.44 C282.34,131.28 282.93,129.83 282.61,128.60 C281.89,125.87 284.69,120.36 287.98,118.02 C290.88,115.95 299.58,113.24 300.46,114.13 C300.76,114.42 300.31,116.94 299.49,119.74 C297.70,125.76 292.43,131.00 288.16,131.00 C283.95,131.00 279.88,136.01 273.15,149.50 C262.30,171.26 259.64,181.94 259.68,203.50 C259.72,221.75 261.15,227.83 270.08,247.76 C276.20,261.41 281.00,277.18 281.00,283.63 C281.00,285.48 281.36,287.00 281.80,287.00 C282.24,287.00 284.32,285.23 286.44,283.06 C294.10,275.22 304.83,272.76 321.92,274.94 C339.16,277.14 344.00,274.16 344.00,261.35 C344.00,257.21 344.54,253.10 345.24,251.99 C346.24,250.39 346.22,249.58 345.16,247.89 C343.99,246.01 344.15,245.46 346.51,242.99 C348.29,241.13 349.11,239.27 348.98,237.36 C348.67,232.79 348.82,232.41 352.50,228.00 C354.42,225.70 356.00,223.19 356.00,222.44 C356.00,221.68 353.98,218.80 351.52,216.02 C344.02,207.58 343.48,206.00 344.01,194.00 C344.26,188.23 344.46,175.18 344.45,165.00 C344.44,144.67 343.76,140.99 337.54,127.50 C331.70,114.85 321.99,105.58 307.45,98.78 C294.06,92.52 288.70,91.49 270.00,91.57 C251.65,91.65 244.03,93.12 230.57,99.20 C222.66,102.77 210.74,110.37 205.35,115.27 C200.24,119.92 193.30,129.45 189.41,137.18 C183.79,148.34 181.78,156.90 181.61,170.42 C181.45,182.64 180.43,185.54 177.93,180.87 C177.09,179.29 176.90,175.41 177.31,168.06 C178.52,146.29 185.30,130.75 200.39,115.16 C225.40,89.34 269.67,79.77 303.55,92.88 C340.06,107.00 353.43,134.06 349.01,184.85 C348.30,193.01 348.01,201.23 348.36,203.11 C348.75,205.20 351.12,208.94 354.50,212.82 C361.41,220.75 361.82,224.24 356.52,230.11 C353.34,233.63 353.09,234.36 353.63,238.35 C354.02,241.18 353.83,242.99 353.09,243.45 C352.39,243.88 352.17,245.41 352.54,247.34 C353.02,249.90 352.64,250.99 350.65,252.86 C348.35,255.02 348.20,255.71 348.65,262.35 C349.26,271.27 347.24,275.12 340.39,278.15 C336.22,280.00 334.57,280.11 320.67,279.48 C306.66,278.85 305.07,278.96 299.86,280.93 C296.76,282.10 292.74,284.57 290.94,286.42 C282.14,295.42 281.78,310.48 290.15,319.28 C294.33,323.67 294.75,324.77 292.58,325.61 C290.91,326.25 287.47,324.62 284.13,321.63 C281.83,319.55 281.74,319.55 280.63,321.40 C277.72,326.30 273.31,330.20 267.66,332.89 ZM 267.47 140.05 C265.74,143.41 265.66,143.43 261.21,141.49 C256.81,139.58 254.57,134.27 255.36,127.59 C256.17,120.80 257.15,120.14 261.73,123.32 C268.55,128.04 270.60,134.01 267.47,140.05 ZM 219.00 192.12 C219.00,193.26 217.88,193.21 216.00,192.00 C215.18,191.47 213.07,191.02 211.33,191.02 C205.68,190.99 199.00,183.17 199.00,176.60 C199.00,173.64 199.07,173.62 204.50,175.10 C210.84,176.84 214.89,180.45 215.62,185.03 C215.97,187.19 216.87,189.48 217.62,190.10 C218.38,190.73 219.00,191.64 219.00,192.12 ZM 277.93 120.37 C275.24,123.78 273.76,123.69 270.59,119.92 C267.47,116.22 267.29,112.17 269.97,106.25 C272.10,101.56 272.95,101.16 275.22,103.75 C280.14,109.36 281.24,116.15 277.93,120.37 ZM 239.59 193.49 C238.13,199.31 228.86,194.09 227.46,186.66 C227.09,184.65 227.07,181.86 227.42,180.45 C227.95,178.36 228.48,178.01 230.28,178.56 C237.15,180.64 241.19,187.13 239.59,193.49 ZM 234.06 221.30 C232.48,222.24 229.91,222.96 228.35,222.92 C224.60,222.81 217.50,219.47 217.50,217.81 C217.50,217.09 219.64,215.44 222.26,214.14 C227.69,211.45 232.78,211.78 236.03,215.03 C238.38,217.38 237.84,219.07 234.06,221.30 ZM 200.08 220.43 C197.16,223.07 191.18,223.38 186.37,221.14 C180.51,218.40 180.32,217.39 185.21,214.88 C190.54,212.15 197.21,211.97 199.99,214.49 C202.50,216.77 202.53,218.21 200.08,220.43 ZM 215.93 205.54 C214.37,206.34 211.61,207.00 209.80,207.00 C206.37,206.99 200.00,203.77 200.00,202.04 C200.00,200.54 207.53,197.00 210.71,197.00 C212.24,197.01 214.95,197.89 216.73,198.98 C220.48,201.27 220.23,203.31 215.93,205.54 Z" fill="rgb(65,132,61)" stroke="rgb(65,132,61)" stroke-width="8"/>
<path d="M 281.00 334.00 C282.97,334.63 282.43,334.80 278.50,334.82 L 273.50 334.84 L 276.86 333.37 C278.71,332.57 280.73,332.12 281.36,332.37 C281.99,332.63 281.60,332.92 280.50,333.02 C278.80,333.17 278.87,333.32 281.00,334.00 Z" fill="rgb(135,149,135)" stroke="rgb(135,149,135)" stroke-width="8"/>
<path d="M 281.00 334.00 C278.87,333.32 278.80,333.17 280.50,333.02 C281.60,332.92 281.99,332.63 281.36,332.37 C281.22,332.32 281.00,332.29 280.73,332.30 C282.95,332.03 285.94,332.08 290.80,332.37 C306.03,333.28 309.54,331.17 314.16,318.29 C316.40,312.06 317.25,294.69 315.74,286.25 C315.01,282.20 315.09,282.00 317.42,282.00 C320.28,282.00 320.61,282.88 321.52,292.62 L 322.18 299.75 L 327.67 296.44 C333.67,292.83 337.97,291.67 351.56,290.01 C363.70,288.53 371.41,286.26 374.14,283.35 C376.27,281.08 376.40,280.18 376.20,269.21 L 376.19 268.99 C376.06,262.26 376.01,259.29 376.94,256.67 C377.69,254.58 379.07,252.70 381.56,249.31 C383.13,247.17 383.06,247.10 378.83,246.06 C362.21,241.97 361.68,240.73 374.76,236.51 C385.35,233.09 386.54,231.62 382.57,226.90 C379.69,223.48 379.48,222.23 381.16,218.54 C382.40,215.83 385.70,214.55 394.17,213.49 C396.74,213.17 399.37,212.25 400.03,211.46 C402.35,208.67 401.17,206.44 383.69,180.66 C377.79,171.94 377.21,168.89 379.92,160.73 C384.87,145.87 381.42,123.35 371.41,105.13 C356.95,78.83 332.96,60.49 302.29,52.29 C293.50,49.94 290.66,49.67 274.50,49.62 C259.09,49.58 255.31,49.88 248.26,51.75 C220.95,58.97 199.85,73.32 186.09,94.05 C182.97,98.75 179.81,104.03 179.08,105.80 C177.68,109.18 174.00,110.34 174.00,107.40 C174.00,104.39 181.01,92.44 187.34,84.66 C204.57,63.47 230.23,49.24 257.23,45.90 C268.62,44.49 291.99,45.35 301.00,47.51 C329.00,54.23 355.74,72.29 370.35,94.34 C384.28,115.35 390.65,143.93 385.00,160.00 C382.35,167.53 382.50,171.01 385.69,175.61 C404.79,203.23 407.47,208.38 405.07,212.87 C403.47,215.86 400.93,216.94 393.80,217.65 C390.33,217.99 386.94,218.72 386.25,219.26 C384.29,220.81 384.78,223.44 387.50,226.00 C388.88,227.29 390.00,229.33 390.00,230.54 C390.00,233.73 386.49,237.68 382.48,239.01 C378.75,240.24 377.80,242.00 380.87,242.00 C383.37,242.00 388.00,245.75 388.00,247.77 C388.00,248.67 386.54,250.91 384.75,252.76 L 381.50 256.11 L 381.38 269.15 C381.27,280.42 380.99,282.54 379.29,284.84 C375.65,289.76 370.19,291.87 355.38,294.06 C338.35,296.59 335.20,297.38 330.99,300.25 C325.31,304.12 323.76,307.08 323.71,314.16 C323.64,323.67 327.67,330.28 335.50,333.50 C336.60,333.95 344.02,334.40 352.00,334.50 C364.98,334.67 376.65,335.69 375.76,336.57 C375.58,336.75 369.45,337.60 362.12,338.45 C337.91,341.27 331.04,340.14 322.88,331.98 L 318.16 327.25 L 314.35 331.16 C308.67,336.97 303.24,338.30 292.73,336.45 C288.21,335.65 282.02,334.97 279.00,334.92 L 273.50 334.84 L 277.00 333.30 C277.64,333.01 278.29,332.79 279.01,332.61 C278.33,332.80 277.58,333.06 276.86,333.37 L 273.50 334.84 L 278.50 334.82 C282.43,334.80 282.97,334.63 281.00,334.00 ZM 317.51 268.75 C318.03,270.63 317.74,271.00 315.74,271.00 C313.60,271.00 313.04,270.00 310.27,261.25 C301.10,232.26 290.16,212.86 270.29,190.39 C266.83,186.47 264.00,182.99 264.00,182.64 C264.00,179.12 273.79,188.40 285.39,202.90 L 294.50 214.29 L 295.15 202.90 C296.17,184.98 297.84,178.25 304.54,164.92 C308.09,157.85 308.76,155.64 308.34,152.42 C307.94,149.38 308.36,147.72 310.18,145.03 C312.47,141.67 319.37,136.79 323.55,135.58 C325.39,135.05 325.57,135.37 325.26,138.75 C324.53,146.84 323.79,149.17 320.87,152.49 C319.04,154.58 316.54,156.18 314.53,156.56 C311.60,157.11 310.85,157.96 308.16,163.84 C303.88,173.19 301.21,183.61 299.90,196.07 C298.33,211.09 300.25,222.83 306.88,238.75 C311.08,248.83 315.16,260.35 317.51,268.75 ZM 256.00 174.97 C256.00,176.77 254.63,176.12 247.63,171.03 C240.85,166.08 240.77,166.05 234.91,166.67 C229.28,167.26 228.82,167.13 224.50,163.76 C219.21,159.64 215.48,155.19 216.47,154.20 C216.85,153.81 220.47,153.50 224.51,153.50 C232.85,153.50 236.27,155.23 239.18,160.94 C240.26,163.05 243.57,165.96 248.43,169.08 C252.59,171.75 256.00,174.40 256.00,174.97 ZM 296.39 174.42 C295.43,176.92 289.64,176.41 286.20,173.51 C281.54,169.59 278.91,156.00 282.80,156.00 C285.24,156.00 293.35,161.24 295.37,164.12 C297.01,166.46 297.51,171.50 296.39,174.42 ZM 257.61 163.25 C255.24,166.36 249.26,164.72 246.90,160.31 C246.17,158.95 245.66,155.73 245.77,153.17 C246.22,142.52 248.26,140.48 253.20,145.75 C258.61,151.54 260.58,159.34 257.61,163.25 ZM 316.70 185.04 C313.21,187.17 311.66,187.34 308.25,185.97 C305.41,184.83 305.33,181.61 308.03,177.18 C310.15,173.70 315.72,170.67 322.18,169.48 L 325.86 168.80 L 324.42 173.59 C322.56,179.79 320.63,182.64 316.70,185.04 ZM 287.07 224.14 C282.64,227.73 276.99,225.91 270.14,218.71 C268.29,216.76 267.08,214.68 267.45,214.09 C268.44,212.48 280.62,212.75 283.91,214.45 C285.45,215.25 287.31,217.34 288.04,219.10 C289.26,222.04 289.18,222.43 287.07,224.14 ZM 412.79 269.06 C408.52,271.29 408.32,271.33 407.52,270.04 C407.20,269.51 408.66,268.19 410.78,267.11 C419.02,262.91 425.00,252.76 425.00,243.00 C425.00,237.16 422.31,229.73 418.37,224.67 C416.35,222.08 415.00,219.66 415.37,219.30 C416.62,218.04 421.30,222.57 424.40,228.03 C427.27,233.09 427.50,234.22 427.50,243.00 C427.50,250.92 427.13,253.19 425.26,256.69 C422.57,261.72 417.84,266.42 412.79,269.06 ZM 240.43 147.43 C239.56,148.29 238.55,148.97 238.18,148.94 C235.82,148.72 232.86,146.68 230.61,143.73 C228.51,140.98 228.00,139.21 228.00,134.66 C228.00,130.57 228.38,129.00 229.35,129.00 C231.19,129.00 238.42,134.34 240.39,137.15 C242.44,140.08 242.46,145.40 240.43,147.43 ZM 408.74 261.07 C404.78,263.94 401.00,264.92 401.00,263.07 C401.00,262.55 401.86,261.86 402.92,261.53 C408.39,259.79 413.36,252.83 414.59,245.19 C415.39,240.16 412.87,232.16 409.47,228.97 C406.68,226.35 406.33,225.00 408.43,225.00 C410.51,225.00 415.54,231.51 416.86,235.92 C417.49,238.02 418.00,241.40 418.00,243.43 C418.00,249.03 413.48,257.64 408.74,261.07 ZM 402.39 253.91 C399.80,255.95 395.96,256.76 396.04,255.25 C396.06,254.84 397.51,253.60 399.26,252.50 C403.56,249.80 405.17,246.41 404.66,241.17 C404.36,238.17 403.35,235.93 401.36,233.83 L 398.50 230.82 L 400.97 231.16 C402.42,231.36 404.37,232.90 405.72,234.90 C409.75,240.90 408.28,249.27 402.39,253.91 ZM 291.18 325.70 C291.73,325.78 292.20,325.75 292.58,325.61 C294.47,324.88 294.40,323.96 291.61,320.86 C292.52,321.60 293.51,322.23 294.56,322.73 C298.46,324.59 298.17,326.00 293.88,326.00 C292.95,326.00 292.06,325.90 291.18,325.70 ZM 294.00 284.00 C291.42,285.81 289.28,288.05 287.66,290.66 C288.57,289.14 289.67,287.72 290.94,286.42 C291.67,285.68 292.76,284.83 294.00,284.00 ZM 284.43 299.47 C283.75,303.92 284.29,308.52 285.81,312.51 C284.17,308.43 283.71,303.88 284.43,299.47 ZM 287.67 324.27 C286.53,323.61 285.36,322.73 284.13,321.63 C285.33,322.70 286.54,323.59 287.67,324.27 Z" fill="rgb(98,98,99)" stroke="rgb(98,98,99)" stroke-width="8"/>
<path d="M 0.00 204.00 L 0.00 0.00 L 306.00 0.00 L 612.00 0.00 L 612.00 204.00 L 612.00 408.00 L 306.00 408.00 L 0.00 408.00 L 0.00 204.00 ZM 362.12 338.45 C369.45,337.60 375.58,336.75 375.76,336.57 C376.65,335.69 364.98,334.67 352.00,334.50 C344.02,334.40 336.60,333.95 335.50,333.50 C327.67,330.28 323.64,323.67 323.71,314.16 C323.76,307.08 325.31,304.12 330.99,300.25 C335.20,297.38 338.35,296.59 355.38,294.06 C370.19,291.87 375.65,289.76 379.29,284.84 C380.99,282.54 381.27,280.42 381.38,269.15 L 381.50 256.11 L 384.75 252.76 C386.54,250.91 388.00,248.67 388.00,247.77 C388.00,245.75 383.37,242.00 380.87,242.00 C377.80,242.00 378.75,240.24 382.48,239.01 C386.49,237.68 390.00,233.73 390.00,230.54 C390.00,229.33 388.88,227.29 387.50,226.00 C384.78,223.44 384.29,220.81 386.25,219.26 C386.94,218.72 390.33,217.99 393.80,217.65 C400.93,216.94 403.47,215.86 405.07,212.87 C407.47,208.38 404.79,203.23 385.69,175.61 C382.50,171.01 382.35,167.53 385.00,160.00 C390.65,143.93 384.28,115.35 370.35,94.34 C355.74,72.29 329.00,54.23 301.00,47.51 C291.99,45.35 268.62,44.49 257.23,45.90 C230.23,49.24 204.57,63.47 187.34,84.66 C181.01,92.44 174.00,104.39 174.00,107.40 C174.00,110.34 177.68,109.18 179.08,105.80 C179.81,104.03 182.97,98.75 186.09,94.05 C199.85,73.32 220.95,58.97 248.26,51.75 C255.31,49.88 259.09,49.58 274.50,49.62 C290.66,49.67 293.50,49.94 302.29,52.29 C332.96,60.49 356.95,78.83 371.41,105.13 C381.42,123.35 384.87,145.87 379.92,160.73 C377.21,168.89 377.79,171.94 383.69,180.66 C401.17,206.44 402.35,208.67 400.03,211.46 C399.37,212.25 396.74,213.17 394.17,213.49 C385.70,214.55 382.40,215.83 381.16,218.54 C379.48,222.23 379.69,223.48 382.57,226.90 C386.54,231.62 385.35,233.09 374.76,236.51 C361.68,240.73 362.21,241.97 378.83,246.06 C383.06,247.10 383.13,247.17 381.56,249.31 C375.93,256.99 375.96,256.87 376.20,269.21 C376.40,280.18 376.27,281.08 374.14,283.35 C371.41,286.26 363.70,288.53 351.56,290.01 C337.97,291.67 333.67,292.83 327.67,296.44 L 322.18 299.75 L 321.52 292.62 C320.61,282.88 320.28,282.00 317.42,282.00 C315.09,282.00 315.01,282.20 315.74,286.25 C317.25,294.69 316.40,312.06 314.16,318.29 C309.54,331.17 306.03,333.28 290.80,332.37 C282.68,331.89 279.76,332.08 277.00,333.30 L 273.50 334.84 L 279.00 334.92 C282.02,334.97 288.21,335.65 292.73,336.45 C303.24,338.30 308.67,336.97 314.35,331.16 L 318.16 327.25 L 322.88 331.98 C331.04,340.14 337.91,341.27 362.12,338.45 ZM 267.66 332.89 C273.31,330.20 277.72,326.30 280.63,321.40 C281.74,319.55 281.83,319.55 284.13,321.63 C287.56,324.70 290.46,326.00 293.88,326.00 C298.17,326.00 298.46,324.59 294.56,322.73 C285.66,318.49 281.53,304.87 285.88,294.14 C288.35,288.06 293.25,283.43 299.86,280.93 C305.07,278.96 306.66,278.85 320.67,279.48 C334.57,280.11 336.22,280.00 340.39,278.15 C347.24,275.12 349.26,271.27 348.65,262.35 C348.20,255.71 348.35,255.02 350.65,252.86 C352.64,250.99 353.02,249.90 352.54,247.34 C352.17,245.41 352.39,243.88 353.09,243.45 C353.83,242.99 354.02,241.18 353.63,238.35 C353.09,234.36 353.34,233.63 356.52,230.11 C361.82,224.24 361.41,220.75 354.50,212.82 C351.12,208.94 348.75,205.20 348.36,203.11 C348.01,201.23 348.30,193.01 349.01,184.85 C353.43,134.06 340.06,107.00 303.55,92.88 C269.67,79.77 225.40,89.34 200.39,115.16 C185.30,130.75 178.52,146.29 177.31,168.06 C176.90,175.41 177.09,179.29 177.93,180.87 C180.43,185.54 181.45,182.64 181.61,170.42 C181.78,156.90 183.79,148.34 189.41,137.18 C193.30,129.45 200.24,119.92 205.35,115.27 C210.74,110.37 222.66,102.77 230.57,99.20 C244.03,93.12 251.65,91.65 270.00,91.57 C288.70,91.49 294.06,92.52 307.45,98.78 C321.99,105.58 331.70,114.85 337.54,127.50 C343.76,140.99 344.44,144.67 344.45,165.00 C344.46,175.18 344.26,188.23 344.01,194.00 C343.48,206.00 344.02,207.58 351.52,216.02 C353.98,218.80 356.00,221.68 356.00,222.44 C356.00,223.19 354.42,225.70 352.50,228.00 C348.82,232.41 348.67,232.79 348.98,237.36 C349.11,239.27 348.29,241.13 346.51,242.99 C344.15,245.46 343.99,246.01 345.16,247.89 C346.22,249.58 346.24,250.39 345.24,251.99 C344.54,253.10 344.00,257.21 344.00,261.35 C344.00,274.16 339.16,277.14 321.92,274.94 C304.83,272.76 294.10,275.22 286.44,283.06 C284.32,285.23 282.24,287.00 281.80,287.00 C281.36,287.00 281.00,285.48 281.00,283.63 C281.00,277.18 276.20,261.41 270.08,247.76 C261.15,227.83 259.72,221.75 259.68,203.50 C259.64,181.94 262.30,171.26 273.15,149.50 C279.88,136.01 283.95,131.00 288.16,131.00 C292.43,131.00 297.70,125.76 299.49,119.74 C300.31,116.94 300.76,114.42 300.46,114.13 C299.58,113.24 290.88,115.95 287.98,118.02 C284.69,120.36 281.89,125.87 282.61,128.60 C282.93,129.83 282.34,131.28 281.06,132.44 C279.93,133.47 279.00,134.92 279.00,135.65 C279.00,136.39 278.63,137.00 278.17,137.00 C277.20,137.00 268.61,150.37 265.38,156.91 C256.88,174.17 252.78,195.94 254.83,213.00 C255.32,217.12 255.56,220.69 255.36,220.92 C255.16,221.15 250.83,217.21 245.75,212.16 C236.45,202.93 225.01,194.50 222.80,195.23 C222.14,195.45 223.61,197.02 226.05,198.72 C232.78,203.39 241.90,212.58 248.65,221.50 C254.17,228.80 260.35,238.98 259.67,239.66 C259.52,239.81 254.92,237.69 249.45,234.93 C235.93,228.12 228.32,226.64 211.50,227.51 C202.98,227.95 197.72,228.68 196.25,229.62 C193.50,231.36 188.45,238.78 189.38,239.71 C190.60,240.93 199.44,240.26 203.29,238.65 C206.01,237.52 207.50,236.04 208.61,233.40 L 210.14 229.72 L 219.15 230.40 C231.27,231.32 241.78,234.80 251.30,241.05 C267.94,251.98 276.11,269.14 276.28,293.50 C276.41,311.68 270.80,323.40 257.96,331.79 C254.69,333.93 252.30,335.97 252.66,336.33 C253.89,337.56 261.53,335.82 267.66,332.89 ZM 317.51 268.75 C315.16,260.35 311.08,248.83 306.88,238.75 C300.25,222.83 298.33,211.09 299.90,196.07 C301.21,183.61 303.88,173.19 308.16,163.84 C310.85,157.96 311.60,157.11 314.53,156.56 C316.54,156.18 319.04,154.58 320.87,152.49 C323.79,149.17 324.53,146.84 325.26,138.75 C325.57,135.37 325.39,135.05 323.55,135.58 C319.37,136.79 312.47,141.67 310.18,145.03 C308.36,147.72 307.94,149.38 308.34,152.42 C308.76,155.64 308.09,157.85 304.54,164.92 C297.84,178.25 296.17,184.98 295.15,202.90 L 294.50 214.29 L 285.39 202.90 C273.79,188.40 264.00,179.12 264.00,182.64 C264.00,182.99 266.83,186.47 270.29,190.39 C290.16,212.86 301.10,232.26 310.27,261.25 C313.04,270.00 313.60,271.00 315.74,271.00 C317.74,271.00 318.03,270.63 317.51,268.75 ZM 412.79 269.06 C417.84,266.42 422.57,261.72 425.26,256.69 C427.13,253.19 427.50,250.92 427.50,243.00 C427.50,234.22 427.27,233.09 424.40,228.03 C421.30,222.57 416.62,218.04 415.37,219.30 C415.00,219.66 416.35,222.08 418.37,224.67 C422.31,229.73 425.00,237.16 425.00,243.00 C425.00,252.76 419.02,262.91 410.78,267.11 C408.66,268.19 407.20,269.51 407.52,270.04 C408.32,271.33 408.52,271.29 412.79,269.06 ZM 408.74 261.07 C413.48,257.64 418.00,249.03 418.00,243.43 C418.00,241.40 417.49,238.02 416.86,235.92 C415.54,231.51 410.51,225.00 408.43,225.00 C406.33,225.00 406.68,226.35 409.47,228.97 C412.87,232.16 415.39,240.16 414.59,245.19 C413.36,252.83 408.39,259.79 402.92,261.53 C401.86,261.86 401.00,262.55 401.00,263.07 C401.00,264.92 404.78,263.94 408.74,261.07 ZM 402.39 253.91 C408.28,249.27 409.75,240.90 405.72,234.90 C404.37,232.90 402.42,231.36 400.97,231.16 L 398.50 230.82 L 401.36 233.83 C403.35,235.93 404.36,238.17 404.66,241.17 C405.17,246.41 403.56,249.80 399.26,252.50 C397.51,253.60 396.06,254.84 396.04,255.25 C395.96,256.76 399.80,255.95 402.39,253.91 ZM 287.07 224.14 C289.18,222.43 289.26,222.04 288.04,219.10 C287.31,217.34 285.45,215.25 283.91,214.45 C280.62,212.75 268.44,212.48 267.45,214.09 C267.08,214.68 268.29,216.76 270.14,218.71 C276.99,225.91 282.64,227.73 287.07,224.14 ZM 200.08 220.43 C202.53,218.21 202.50,216.77 199.99,214.49 C197.21,211.97 190.54,212.15 185.21,214.88 C180.32,217.39 180.51,218.40 186.37,221.14 C191.18,223.38 197.16,223.07 200.08,220.43 ZM 234.06 221.30 C237.84,219.07 238.38,217.38 236.03,215.03 C232.78,211.78 227.69,211.45 222.26,214.14 C219.64,215.44 217.50,217.09 217.50,217.81 C217.50,219.47 224.60,222.81 228.35,222.92 C229.91,222.96 232.48,222.24 234.06,221.30 ZM 215.93 205.54 C220.23,203.31 220.48,201.27 216.73,198.98 C214.95,197.89 212.24,197.01 210.71,197.00 C207.53,197.00 200.00,200.54 200.00,202.04 C200.00,203.77 206.37,206.99 209.80,207.00 C211.61,207.00 214.37,206.34 215.93,205.54 ZM 239.59 193.49 C241.19,187.13 237.15,180.64 230.28,178.56 C228.48,178.01 227.95,178.36 227.42,180.45 C227.07,181.86 227.09,184.65 227.46,186.66 C228.86,194.09 238.13,199.31 239.59,193.49 ZM 219.00 192.12 C219.00,191.64 218.38,190.73 217.62,190.10 C216.87,189.48 215.97,187.19 215.62,185.03 C214.89,180.45 210.84,176.84 204.50,175.10 C199.07,173.62 199.00,173.64 199.00,176.60 C199.00,183.17 205.68,190.99 211.33,191.02 C213.07,191.02 215.18,191.47 216.00,192.00 C217.88,193.21 219.00,193.26 219.00,192.12 ZM 316.70 185.04 C320.63,182.64 322.56,179.79 324.42,173.59 L 325.86 168.80 L 322.18 169.48 C315.72,170.67 310.15,173.70 308.03,177.18 C305.33,181.61 305.41,184.83 308.25,185.97 C311.66,187.34 313.21,187.17 316.70,185.04 ZM 256.00 174.97 C256.00,174.40 252.59,171.75 248.43,169.08 C243.57,165.96 240.26,163.05 239.18,160.94 C236.27,155.23 232.85,153.50 224.51,153.50 C220.47,153.50 216.85,153.81 216.47,154.20 C215.48,155.19 219.21,159.64 224.50,163.76 C228.82,167.13 229.28,167.26 234.91,166.67 C240.77,166.05 240.85,166.08 247.63,171.03 C254.63,176.12 256.00,176.77 256.00,174.97 ZM 296.39 174.42 C297.51,171.50 297.01,166.46 295.37,164.12 C293.35,161.24 285.24,156.00 282.80,156.00 C278.91,156.00 281.54,169.59 286.20,173.51 C289.64,176.41 295.43,176.92 296.39,174.42 ZM 257.61 163.25 C260.58,159.34 258.61,151.54 253.20,145.75 C248.26,140.48 246.22,142.52 245.77,153.17 C245.66,155.73 246.17,158.95 246.90,160.31 C249.26,164.72 255.24,166.36 257.61,163.25 ZM 240.43 147.43 C242.46,145.40 242.44,140.08 240.39,137.15 C238.42,134.34 231.19,129.00 229.35,129.00 C228.38,129.00 228.00,130.57 228.00,134.66 C228.00,139.21 228.51,140.98 230.61,143.73 C232.86,146.68 235.82,148.72 238.18,148.94 C238.55,148.97 239.56,148.29 240.43,147.43 ZM 267.47 140.05 C270.60,134.01 268.55,128.04 261.73,123.32 C257.15,120.14 256.17,120.80 255.36,127.59 C254.57,134.27 256.81,139.58 261.21,141.49 C265.66,143.43 265.74,143.41 267.47,140.05 ZM 277.93 120.37 C281.24,116.15 280.14,109.36 275.22,103.75 C272.95,101.16 272.10,101.56 269.97,106.25 C267.29,112.17 267.47,116.22 270.59,119.92 C273.76,123.69 275.24,123.78 277.93,120.37 Z" fill="rgb(246,246,246)" display="none"/>
</g>
</svg>